HIERARCHY
ROOT Hips
{
	OFFSET 0.000000 0.000000 0.000000
	CHANNELS 6 Xposition Yposition Zposition Zrotation Yrotation Xrotation 
	JOINT LHipJoint
	{
		OFFSET 0.000000 0.000000 0.000000
		CHANNELS 3 Zrotation Yrotation Xrotation
		JOINT LeftUpLeg
		{
			OFFSET 1.363060 -1.794630 0.839290
			CHANNELS 3 Zrotation Yrotation Xrotation
			JOINT LeftLeg
			{
				OFFSET 2.448110 -6.726130 0.000000
				CHANNELS 3 Zrotation Yrotation Xrotation
				JOINT LeftFoot
				{
					OFFSET 2.562200 -7.039590 0.000000
					CHANNELS 3 Zrotation Yrotation Xrotation
					JOINT LeftToeBase
					{
						OFFSET 0.157640 -0.433110 2.322550
						CHANNELS 3 Zrotation Yrotation Xrotation
						End Site
						{
							OFFSET 0.000000 0.000000 0.000000
						}
					}
				}
			}
		}
	}
	JOINT RHipJoint
	{
		OFFSET 0.000000 0.000000 0.000000
		CHANNELS 3 Zrotation Yrotation Xrotation
		JOINT RightUpLeg
		{
			OFFSET -1.305520 -1.794630 0.839290
			CHANNELS 3 Zrotation Yrotation Xrotation
			JOINT RightLeg
			{
				OFFSET -2.542530 -6.985550 0.000000
				CHANNELS 3 Zrotation Yrotation Xrotation
				JOINT RightFoot
				{
					OFFSET -2.568260 -7.056230 0.000000
					CHANNELS 3 Zrotation Yrotation Xrotation
					JOINT RightToeBase
					{
						OFFSET -0.164730 -0.452590 2.363150
						CHANNELS 3 Zrotation Yrotation Xrotation
						End Site
						{
							OFFSET 0.000000 0.000000 0.000000
						}
					}
				}
			}
		}
	}
	JOINT LowerBack
	{
		OFFSET 0.000000 0.000000 0.000000
		CHANNELS 3 Zrotation Yrotation Xrotation
		JOINT Spine
		{
			OFFSET 0.028270 2.035590 -0.193380
			CHANNELS 3 Zrotation Yrotation Xrotation
			JOINT Spine1
			{
				OFFSET 0.056720 2.048850 -0.042750
				CHANNELS 3 Zrotation Yrotation Xrotation
				JOINT Neck
				{
					OFFSET 0.000000 0.000000 0.000000
					CHANNELS 3 Zrotation Yrotation Xrotation
					JOINT Neck1
					{
						OFFSET -0.054170 1.746240 0.172020
						CHANNELS 3 Zrotation Yrotation Xrotation
						JOINT Head
						{
							OFFSET 0.104070 1.761360 -0.123970
							CHANNELS 3 Zrotation Yrotation Xrotation
							End Site
							{
								OFFSET 0.000000 0.000000 0.000000
							}
						}
					}
				}
				JOINT LeftShoulder
				{
					OFFSET 0.000000 0.000000 0.000000
					CHANNELS 3 Zrotation Yrotation Xrotation
					JOINT LeftArm
					{
						OFFSET 3.362410 1.200890 -0.311210
						CHANNELS 3 Zrotation Yrotation Xrotation
						JOINT LeftForeArm
						{
							OFFSET 4.983000 -0.000000 -0.000000
							CHANNELS 3 Zrotation Yrotation Xrotation
							JOINT LeftHand
							{
								OFFSET 3.483560 -0.000000 -0.000000
								CHANNELS 3 Zrotation Yrotation Xrotation
								JOINT LeftFingerBase
								{
									OFFSET 0.000000 0.000000 0.000000
									CHANNELS 3 Zrotation Yrotation Xrotation
									JOINT LeftHandIndex1
									{
										OFFSET 0.715260 -0.000000 -0.000000
										CHANNELS 3 Zrotation Yrotation Xrotation
										End Site
										{
											OFFSET 0.000000 0.000000 0.000000
										}
									}
								}
								JOINT LThumb
								{
									OFFSET 0.000000 0.000000 0.000000
									CHANNELS 3 Zrotation Yrotation Xrotation
									End Site
									{
										OFFSET 0.000000 0.000000 0.000000
									}
								}
							}
						}
					}
				}
				JOINT RightShoulder
				{
					OFFSET 0.000000 0.000000 0.000000
					CHANNELS 3 Zrotation Yrotation Xrotation
					JOINT RightArm
					{
						OFFSET -3.136600 1.374050 -0.404650
						CHANNELS 3 Zrotation Yrotation Xrotation
						JOINT RightForeArm
						{
							OFFSET -5.241900 -0.000000 -0.000000
							CHANNELS 3 Zrotation Yrotation Xrotation
							JOINT RightHand
							{
								OFFSET -3.444170 -0.000000 -0.000000
								CHANNELS 3 Zrotation Yrotation Xrotation
								JOINT RightFingerBase
								{
									OFFSET 0.000000 0.000000 0.000000
									CHANNELS 3 Zrotation Yrotation Xrotation
									JOINT RightHandIndex1
									{
										OFFSET -0.622530 -0.000000 -0.000000
										CHANNELS 3 Zrotation Yrotation Xrotation
										End Site
										{
											OFFSET 0.000000 0.000000 0.000000
										}
									}
								}
								JOINT RThumb
								{
									OFFSET 0.000000 0.000000 0.000000
									CHANNELS 3 Zrotation Yrotation Xrotation
									End Site
									{
										OFFSET 0.000000 0.000000 0.000000
									}
								}
							}
						}
					}
				}
			}
		}
	}
}
MOTION
Frames: 4
Frame Time: 0.008333
-11.072494 16.999121 -0.812027 131.583921 87.578102 144.472427 -10.054906 5.670429 0.264221 -5.159261 10.416722 -1.505988 -1.471370 1.888888 25.770788 0.261385 -4.243214 13.800779 -1.506400 0.000000 -80.308900 9.309792 -0.136736 5.177633 12.756327 9.957707 -32.981296 2.678588 0.554821 10.874130 -0.835870 -3.634987 -2.279586 -1.054900 0.000001 -28.184100 -1.050969 -7.665139 -5.970097 -0.248555 -7.781622 -3.766299 -6.086893 -7.873963 0.501281 13.310786 -20.390874 -10.024766 -3.300469 -0.232731 -0.524638 0.000000 0.000000 0.000000 7.868846 0.463549 -1.192892 -68.393836 3.140430 1.429621 -0.771675 -88.800486 -0.128873 20.632178 -5.349312 -1.067813 -0.268062 0.460285 -0.000000 0.000000 0.000000 0.000000 0.000000 0.000000 0.000000 17.396642 -18.914195 -0.545665 60.281895 -0.783204 -10.769087 0.323298 79.427439 -0.021061 -10.611857 9.277013 -0.905856 0.189444 -0.301726 -0.000000 0.000000 0.000000 0.000000 0.000000 0.000000 0.000000 
-10.854160 17.001503 -0.792606 132.934731 88.095020 145.814026 -10.257364 5.632010 0.182261 -4.369431 11.027385 -3.185352 -1.207768 2.071516 29.357667 0.410795 -3.973138 15.295840 -1.603500 0.000000 -78.125600 9.163224 -0.269883 5.248434 13.465148 10.450444 -32.561888 2.695931 0.449236 11.864208 -0.879402 -3.764883 -2.589179 -1.038900 -0.000000 -24.339100 -0.675554 -7.482813 -6.007495 -0.190090 -7.635264 -3.789769 -6.125426 -7.728757 0.466320 13.283842 -20.096686 -9.996419 -3.290885 -0.232323 -0.517871 0.000000 0.000000 0.000000 7.441072 0.794163 -1.079015 -68.889312 3.361589 1.356889 -0.769087 -87.834705 -0.125694 20.703187 -5.488531 -1.095573 -0.266673 0.450972 -0.000000 0.000000 0.000000 0.000000 0.000000 0.000000 0.000000 17.252324 -18.477635 -0.590601 60.349229 -0.190013 -10.233065 0.292944 79.995993 -0.022918 -10.662038 9.364973 -0.919451 0.188884 -0.311704 -0.000000 0.000000 0.000000 0.000000 0.000000 0.000000 0.000000 
-10.638325 17.003625 -0.773737 135.021784 88.647000 147.917156 -10.465398 5.556848 0.098603 -3.612169 11.660192 -4.987738 -0.955547 2.231236 32.953699 0.583473 -3.218074 16.479041 -1.495000 0.000000 -74.655800 8.993737 -0.399256 5.310722 14.265768 10.832288 -32.159840 2.748871 0.365098 12.783345 -0.902813 -3.743278 -3.076490 -0.981700 -0.000000 -20.304500 -0.294525 -7.275471 -6.039556 -0.134456 -7.464955 -3.810484 -6.169157 -7.558932 0.439806 13.274324 -19.807126 -9.982724 -3.283214 -0.231841 -0.515534 0.000000 0.000000 0.000000 7.048354 1.170213 -0.961447 -69.454985 3.588190 1.240379 -0.769504 -86.737461 -0.122202 20.776420 -5.624575 -1.122855 -0.264590 0.440415 -0.000000 0.000000 0.000000 0.000000 0.000000 0.000000 0.000000 17.147667 -18.031282 -0.639425 60.441980 0.505804 -9.563888 0.265122 80.541162 -0.024632 -10.653314 9.458947 -0.928646 0.187838 -0.322246 -0.000000 0.000000 0.000000 0.000000 0.000000 0.000000 0.000000 
-10.425259 17.005561 -0.754739 137.953983 89.214839 150.886384 -10.675528 5.448551 0.015239 -2.923151 12.283215 -6.878132 -0.725435 2.376344 36.490747 0.772808 -1.946455 17.257017 -1.140800 -0.000000 -70.079200 8.803202 -0.522209 5.360013 15.120362 11.101019 -31.752693 2.833188 0.303302 13.612190 -0.903735 -3.561055 -3.722019 -0.886800 0.000000 -16.230600 0.058225 -7.045219 -6.062306 -0.089281 -7.269706 -3.826821 -6.219363 -7.363339 0.422298 13.288404 -19.521362 -9.982173 -3.278452 -0.231381 -0.517325 0.000000 0.000000 0.000000 6.700739 1.588355 -0.841420 -70.074872 3.816698 1.083993 -0.772749 -85.510641 -0.118401 20.852580 -5.743719 -1.147058 -0.261823 0.428428 0.000000 0.000000 0.000000 0.000000 0.000000 0.000000 0.000000 17.093604 -17.574198 -0.691854 60.558421 1.286869 -8.779497 0.239292 81.072675 -0.026180 -10.591734 9.559325 -0.933738 0.186357 -0.333262 -0.000000 0.000000 0.000000 0.000000 0.000000 0.000000 0.000000 
